PathFileType	4	(X/Y/Z)	s04c0402.trc
DataRate	CameraRate	NumFrames	NumMarkers	Units	OrigDataRate	OrigDataStartFrame	OrigNumFrames
200	200	4	50	mm	200	1500	2000
Frame#	Time	racr			lacr			c7			jug			rlel			rdr			llel			ldr			s2			lic			ric			lasi			rasi			rpsi			lpsi			rgt			lgt			rth1			rth2			rth3			rth4			rlfc			rmfc			rsh1			rsh2			rsh3			rsh4			rlmal			rmmal			rcal			rtoe			rmt5			lth1			lth2			lth4			lth3			llfc			lmfc			lsh1			lsh2			lsh3			lsh4			llmal			lmmal			lcal			ltoe			lmt5			SBIKE			LBIKE			RBIKE			
		X1	Y1	Z1	X2	Y2	Z2	X3	Y3	Z3	X4	Y4	Z4	X5	Y5	Z5	X6	Y6	Z6	X7	Y7	Z7	X8	Y8	Z8	X9	Y9	Z9	X10	Y10	Z10	X11	Y11	Z11	X12	Y12	Z12	X13	Y13	Z13	X14	Y14	Z14	X15	Y15	Z15	X16	Y16	Z16	X17	Y17	Z17	X18	Y18	Z18	X19	Y19	Z19	X20	Y20	Z20	X21	Y21	Z21	X22	Y22	Z22	X23	Y23	Z23	X24	Y24	Z24	X25	Y25	Z25	X26	Y26	Z26	X27	Y27	Z27	X28	Y28	Z28	X29	Y29	Z29	X30	Y30	Z30	X31	Y31	Z31	X32	Y32	Z32	X33	Y33	Z33	X34	Y34	Z34	X35	Y35	Z35	X36	Y36	Z36	X37	Y37	Z37	X38	Y38	Z38	X39	Y39	Z39	X40	Y40	Z40	X41	Y41	Z41	X42	Y42	Z42	X43	Y43	Z43	X44	Y44	Z44	X45	Y45	Z45	X46	Y46	Z46	X47	Y47	Z47	X48	Y48	Z48	X49	Y49	Z49	X50	Y50	Z50	
1500	7.5000	836.110742	1274.178298	-89.335706	823.638011	1219.240005	-413.278550	849.187150	1333.953862	-265.194567	779.850268	1189.624104	-249.931179	552.850359	1152.186585	44.252762	698.451465	943.897462	-79.255251	595.924412	1152.541365	-602.940749	681.680746	936.234158	-491.724550	246.045662	1273.850738	-320.583161	414.868219	1203.307144	-444.868535	371.032992	1288.807779	-140.191096	431.197600	1155.876543	-388.949686	409.267035	1227.252349	-171.827882	279.532640	1318.917790	-284.820084	291.198871	1302.610685	-358.617248	327.117792	1249.855632	-116.032282	333.202893	1126.233126	-466.770855	436.995312	1134.500971	-102.459177	513.810743	1091.986335	-111.001040	561.443016	1020.981388	-109.710668	533.868036	1115.071392	-133.526622	653.999440	907.215904	-138.883431	630.620091	889.395907	-251.133494	559.008857	831.260140	-113.494925	508.759680	755.001529	-122.841889	430.502612	720.049536	-128.373784	532.722211	732.269955	-143.620734	324.895719	602.691622	-134.037153	349.397602	595.743052	-216.293405	251.791517	614.769250	-173.605759	477.807112	413.741225	-167.665550	411.514707	437.991416	-112.364017	328.806056	1042.880004	-482.614359	352.681035	959.368016	-484.871330	387.791405	960.137872	-475.936628	330.761143	873.050437	-487.632689	316.520589	708.086377	-467.984922	339.142318	670.760343	-358.461100	257.761463	594.743103	-489.361292	231.278485	513.952781	-469.127776	166.520943	453.164385	-466.319575	257.924588	500.821822	-443.054459	86.683600	327.658563	-461.018902	86.164391	330.096500	-373.451901	12.552733	352.550054	-420.306408	241.957566	153.991758	-409.249495	164.753554	166.348448	-472.870569	-185.527399	933.023458	-286.757058	-17.633737	79.345147	-485.409581	-17.543466	79.494205	-84.781526	
1501	7.5050	836.961853	1271.264019	-89.058031	822.252429	1219.005293	-413.276362	849.425458	1333.069421	-265.702918	779.634589	1188.879860	-251.408688	552.024917	1152.066366	44.309428	698.376423	944.334986	-79.248831	594.593554	1152.472683	-602.514886	681.822881	936.279109	-491.648896	246.246939	1277.554928	-318.996586	414.399560	1206.389795	-443.958444	371.223462	1290.437467	-139.066778	430.791470	1158.306051	-387.998657	408.976608	1228.683112	-171.002907	279.991520	1322.015259	-283.391994	291.583009	1306.126808	-356.990593	327.343204	1252.321151	-114.511758	333.277633	1129.631271	-466.324411	435.961247	1134.742807	-102.494805	512.121283	1091.288683	-111.682280	558.676374	1019.606094	-111.537792	532.417586	1114.378134	-134.318226	650.131170	905.083630	-141.102595	626.341702	887.210777	-253.265367	556.465179	827.729680	-115.851315	508.292691	750.171458	-124.490201	430.620882	713.298139	-129.328592	532.567872	727.796134	-144.783095	327.797576	593.368454	-133.760571	351.655989	586.963658	-216.351188	253.907744	603.590642	-172.403905	485.759325	409.749744	-168.101582	419.211840	431.549881	-112.118755	330.512184	1045.548703	-481.585674	356.370382	962.665345	-484.051805	391.407728	964.216484	-474.935500	336.603567	875.789059	-487.212053	325.040593	711.223919	-469.071210	347.560425	673.267807	-359.791688	263.379897	599.479799	-490.674744	234.663452	519.500982	-470.006285	168.167390	460.589620	-467.038198	261.095845	505.648739	-443.928447	84.642595	337.450454	-461.428324	85.040051	339.948608	-373.968935	11.399261	364.290800	-420.173775	234.174020	158.268484	-409.390200	157.330323	173.318396	-472.930771	-185.448431	933.125089	-286.563590	-17.623604	79.414196	-485.378311	-17.522007	79.518331	-84.756116	
1502	7.5100	837.843621	1268.503020	-88.893625	820.874319	1219.040788	-413.489645	849.627447	1332.291392	-265.157390	779.432525	1188.202306	-252.084008	551.344071	1151.986843	44.314444	698.295911	944.668456	-79.103862	593.170877	1152.339641	-602.118793	681.897583	936.364044	-491.448759	246.582787	1281.119413	-317.359069	413.763022	1209.944581	-444.336836	371.409948	1291.846274	-137.882232	430.480436	1160.984617	-387.531939	408.713086	1229.682887	-170.064483	280.528585	1325.307801	-281.081717	292.093905	1309.518370	-355.312598	327.469312	1253.409245	-114.138220	333.294807	1133.108516	-465.822936	434.766589	1134.309080	-102.541573	510.459559	1089.922488	-112.048516	554.432868	1017.130228	-112.973505	530.822394	1112.647465	-134.866069	642.982412	902.533163	-141.639325	621.213217	883.604110	-255.642822	553.414026	822.735615	-117.976778	507.044246	744.052967	-125.855908	430.259130	705.374462	-130.203702	531.805959	721.994494	-146.078578	330.182191	583.040489	-133.624549	353.299086	577.368726	-216.481485	255.480836	591.415942	-171.279932	493.078365	405.219687	-168.216205	426.150008	424.610768	-111.631630	332.444565	1048.318624	-480.389765	360.522680	966.098793	-483.199329	395.414418	968.514055	-473.826758	343.027574	878.752722	-487.011517	334.324442	714.371361	-470.014186	356.632112	676.301051	-361.042526	269.582908	604.284057	-491.588841	238.766528	525.298523	-470.819674	170.695408	468.286298	-467.773593	264.434475	511.066905	-444.538244	83.474670	347.438580	-461.848810	84.662013	349.495260	-374.676960	11.198222	376.629975	-420.040327	225.908483	161.646399	-408.855065	150.406286	180.512741	-472.868117	-185.323629	933.221706	-286.288145	-17.582915	79.553527	-485.348818	-17.484356	79.541272	-84.727482	
1503	7.5150	838.714841	1265.463885	-89.137965	819.438013	1219.257914	-413.804749	849.678146	1330.428695	-261.411549	779.002357	1186.456186	-249.964048	550.715528	1151.918694	44.275168	698.233825	944.967757	-78.925882	591.679585	1152.114677	-601.704549	681.868297	936.448599	-491.139466	247.000183	1284.418434	-315.893226	415.924883	1213.488441	-445.225098	371.617327	1292.860512	-136.636320	430.235927	1163.661350	-387.175529	408.477978	1230.272628	-169.034215	281.077633	1328.235803	-278.682478	292.577109	1312.770041	-353.322100	327.374009	1253.968789	-113.589057	333.381658	1136.709511	-465.314480	433.432067	1132.941059	-102.696149	508.390628	1087.582430	-112.579046	551.636490	1014.032871	-114.154303	529.084834	1110.022776	-135.164114	638.308870	898.362508	-143.637310	615.816027	879.748945	-256.846244	550.028340	816.273587	-119.620431	505.401786	736.525484	-127.065166	429.496845	696.151613	-130.985224	530.655003	715.046121	-147.461727	331.892888	571.925855	-133.703349	354.291148	566.839233	-216.758034	256.452849	578.279654	-170.485097	499.839393	400.199119	-167.841780	432.413174	417.146362	-111.148569	334.646236	1051.033542	-479.098162	365.057586	969.630170	-482.257370	399.766813	972.959829	-472.671344	350.062217	881.930121	-486.972464	344.327120	717.691697	-470.912636	365.731985	679.386549	-362.334036	276.488754	609.331174	-492.631628	243.535864	531.313366	-471.613373	173.858490	476.203846	-468.505735	268.688699	516.547455	-445.142951	82.896017	357.856770	-462.286827	82.268963	359.519722	-374.494187	11.760102	389.220088	-419.987959	218.692090	166.251430	-408.721469	144.092951	188.193946	-472.848076	-185.164542	933.334134	-285.980308	-17.532903	79.693849	-485.316560	-17.457785	79.559423	-84.725074	
